<svg width="20" height="19" viewBox="0 0 20 19" fill="none" xmlns="http://www.w3.org/2000/svg">
<path d="M9.01897 1.39655C9.31797 0.475239 10.622 0.475239 10.921 1.39655L12.44 6.07031C12.574 6.48234 12.957 6.7613 13.391 6.7613H18.305C19.274 6.7613 19.676 8.00091 18.893 8.5703L14.917 11.4589C14.567 11.7135 14.42 12.1649 14.554 12.5769L16.072 17.2507C16.372 18.172 15.317 18.9381 14.534 18.3687L10.558 15.4801C10.207 15.2255 9.73297 15.2255 9.38197 15.4801L5.40647 18.3687C4.62277 18.9381 3.56827 18.172 3.86757 17.2507L5.38617 12.5769C5.52007 12.1649 5.37337 11.7135 5.02297 11.4589L1.04717 8.5703C0.263472 8.00091 0.666271 6.7613 1.63497 6.7613H6.54927C6.98247 6.7613 7.36647 6.48234 7.50027 6.07031L9.01897 1.39655Z" fill="#F47E20" fill-opacity="0.5"/>
</svg>
