<svg width="21" height="22" viewBox="0 0 21 22" fill="none" xmlns="http://www.w3.org/2000/svg">
<path d="M20.2298 17.9936L15.9164 13.6802C16.7529 12.3626 17.2365 10.8014 17.2365 9.12955C17.2365 4.432 13.4152 0.610001 8.71828 0.610001C4.02138 0.610001 0.200684 4.432 0.200684 9.12955C0.200684 13.8271 4.02073 17.6491 8.71893 17.6491C10.3082 17.6491 11.7973 17.2117 13.0713 16.4505L17.4231 20.8022C19.2814 22.658 22.0894 19.8526 20.2304 17.9943L20.2298 17.9936ZM2.84098 9.12955C2.84098 5.8893 5.47803 3.2516 8.71893 3.2516C11.9598 3.2516 14.5969 5.888 14.5969 9.12955C14.5969 12.3711 11.9598 15.0075 8.71893 15.0075C5.47803 15.0075 2.84098 12.3705 2.84098 9.12955ZM4.58298 7.60075C6.30223 3.61495 12.0918 4.0771 13.1818 8.2501C10.9855 5.67285 7.12123 5.3953 4.58298 7.60075Z" fill="black"/>
</svg>
