<svg width="20" height="19" viewBox="0 0 20 19" fill="none" xmlns="http://www.w3.org/2000/svg">
<path d="M9.01887 1.39655C9.31827 0.475239 10.6217 0.475239 10.9211 1.39655L12.4397 6.07031C12.5735 6.48234 12.9575 6.7613 13.3907 6.7613H18.305C19.2737 6.7613 19.6765 8.00091 18.8928 8.5703L14.917 11.4589C14.5666 11.7135 14.4199 12.1649 14.5538 12.5769L16.0724 17.2507C16.3717 18.172 15.3172 18.9381 14.5335 18.3687L10.5578 15.4801C10.2073 15.2255 9.73267 15.2255 9.38217 15.4801L5.40645 18.3687C4.62273 18.9381 3.56825 18.172 3.8676 17.2507L5.3862 12.5769C5.52008 12.1649 5.37342 11.7135 5.02293 11.4589L1.04719 8.5703C0.263477 8.00091 0.666247 6.7613 1.63498 6.7613H6.54926C6.98249 6.7613 7.36644 6.48234 7.50032 6.07031L9.01887 1.39655Z" fill="#F47E20"/>
</svg>
