<svg width="203" height="204" viewBox="0 0 203 204" fill="none" xmlns="http://www.w3.org/2000/svg">
<path d="M164.25 200.674C162.986 200.674 161.994 199.681 161.994 198.418V114.602C159.242 114.106 156.851 112.572 155.227 110.406C153.197 113.068 149.994 114.782 146.431 114.782C142.822 114.782 139.619 113.068 137.634 110.406C135.604 113.068 132.446 114.782 128.837 114.782C125.274 114.782 122.071 113.068 120.041 110.406C118.011 113.068 114.853 114.782 111.244 114.782C107.725 114.782 104.568 113.113 102.538 110.542C100.598 113.113 97.5303 114.782 94.0567 114.782C90.5831 114.782 87.4705 113.113 85.5307 110.542C83.5007 113.113 80.3429 114.782 76.7791 114.782C73.2154 114.782 70.0125 113.068 67.9374 110.452C65.9525 113.113 62.7947 114.782 59.2309 114.782C55.6672 114.782 52.4643 113.068 50.4794 110.406C48.4043 113.068 45.2014 114.782 41.5925 114.782H41.0512V198.373C41.0512 199.636 40.0587 200.629 38.7956 200.629C37.5325 200.629 36.54 199.636 36.54 198.373V112.346C36.54 111.67 36.8558 111.038 37.352 110.587C37.8934 110.136 38.57 110 39.2467 110.136C39.6978 110.226 40.1489 110.271 40.6 110.271H41.6376C45.3367 110.271 48.3591 107.249 48.3591 103.55C48.3591 102.286 49.3516 101.294 50.6147 101.294C51.8778 101.294 52.8703 102.286 52.8703 103.55V103.865C52.8703 107.384 55.7574 110.271 59.276 110.271C62.7947 110.271 65.6818 107.384 65.6818 103.865V103.64C65.6818 102.377 66.6743 101.384 67.9374 101.384C69.2005 101.384 70.1929 102.377 70.1929 103.64C70.1929 107.294 73.1703 110.271 76.8243 110.271C80.4783 110.271 83.4556 107.294 83.4556 103.64C83.4556 102.377 84.448 101.384 85.7112 101.384C86.9743 101.384 87.9667 102.377 87.9667 103.64V104.136C87.9667 107.519 90.7185 110.271 94.1018 110.271C97.4852 110.271 100.147 107.564 100.147 104.181V103.775C100.147 102.512 101.139 101.52 102.402 101.52C103.665 101.52 104.658 102.512 104.658 103.775C104.658 107.384 107.59 110.316 111.199 110.316C114.808 110.316 117.74 107.384 117.74 103.775C117.74 102.512 118.732 101.52 119.996 101.52C121.259 101.52 122.251 102.512 122.251 103.775C122.251 107.384 125.183 110.316 128.792 110.316C132.401 110.316 135.333 107.384 135.333 103.775C135.333 102.512 136.326 101.52 137.589 101.52C138.852 101.52 139.844 102.512 139.844 103.775C139.844 107.384 142.777 110.361 146.431 110.361C150.085 110.361 153.017 107.429 153.017 103.775C153.017 102.512 154.009 101.52 155.272 101.52C156.536 101.52 157.528 102.512 157.528 103.775C157.528 107.429 160.46 110.361 164.069 110.361H164.25C164.836 110.361 165.468 110.587 165.874 110.993C166.28 111.399 166.55 111.985 166.55 112.617V198.508C166.505 199.681 165.468 200.674 164.25 200.674Z" fill="#FFFB98"/>
<path d="M31.5777 96.828C31.3522 96.828 31.1266 96.7829 30.9011 96.7378C29.7282 96.3769 29.0515 95.1138 29.4124 93.8958L36.3595 71.9267C36.7204 70.7538 38.0286 70.0771 39.2015 70.438C40.3744 70.7989 41.0511 72.062 40.6902 73.28L33.7431 95.2491C33.4273 96.2416 32.5251 96.828 31.5777 96.828Z" fill="#FFFB98"/>
<path d="M50.5697 96.8279C50.3893 96.8279 50.2088 96.8279 50.0284 96.7828C48.8104 96.5121 48.0435 95.2941 48.3593 94.0761L53.547 72.107C53.8177 70.889 55.0357 70.1221 56.2537 70.4379C57.4717 70.7537 58.2386 71.9266 57.9228 73.1446L52.7801 95.1137C52.5095 96.1513 51.6073 96.8279 50.5697 96.8279Z" fill="#FFFB98"/>
<path d="M67.8923 96.8282C67.8021 96.8282 67.7119 96.8282 67.5766 96.8282C66.3586 96.6478 65.4563 95.52 65.6368 94.302L68.5239 72.3329C68.7043 71.1149 69.8321 70.2127 71.0501 70.3931C72.2681 70.5735 73.1703 71.7013 72.9899 72.9193L70.1028 94.8884C69.9675 96.0162 69.0201 96.8282 67.8923 96.8282Z" fill="#FFFB98"/>
<path d="M85.666 96.8284C85.6209 96.8284 85.6209 96.8284 85.5758 96.8284C84.3127 96.7833 83.3654 95.7457 83.4105 94.4826L84.1774 72.5135C84.2225 71.2504 85.26 70.3031 86.5232 70.3482C87.7863 70.3933 88.7336 71.4309 88.6885 72.694L87.9216 94.6631C87.8765 95.8811 86.884 96.8284 85.666 96.8284Z" fill="#FFFB98"/>
<path d="M102.402 96.8279C101.184 96.8279 100.192 95.8355 100.147 94.6175L99.7407 72.6484C99.6956 71.3853 100.688 70.3928 101.951 70.3477C103.214 70.3477 104.207 71.295 104.252 72.5581L104.658 94.5273C104.658 95.7904 103.711 96.8279 102.402 96.8279Z" fill="#FFFB98"/>
<path d="M119.996 96.8281C118.868 96.8281 117.875 95.971 117.74 94.7981L115.349 72.829C115.214 71.5659 116.116 70.4833 117.334 70.3479C118.552 70.2126 119.68 71.1148 119.815 72.3328L122.206 94.3019C122.341 95.565 121.439 96.6477 120.221 96.783C120.131 96.8282 120.041 96.8281 119.996 96.8281Z" fill="#FFFB98"/>
<path d="M137.634 96.8281C136.596 96.8281 135.649 96.1063 135.424 95.0236L131.003 73.0545C130.777 71.8365 131.544 70.6636 132.762 70.393C133.98 70.1223 135.153 70.9343 135.424 72.1523L139.844 94.1214C140.07 95.3394 139.303 96.5123 138.085 96.783C137.95 96.8281 137.769 96.8281 137.634 96.8281Z" fill="#FFFB98"/>
<path d="M155.227 96.8279C155.092 96.8279 154.912 96.8279 154.776 96.7828C154.461 96.7377 154.145 96.6023 153.874 96.3768C153.603 96.1963 153.378 95.9257 153.243 95.6099C153.152 95.4746 153.107 95.2941 153.062 95.1588L146.611 73.2799C146.25 72.107 146.972 70.8439 148.145 70.483C149.363 70.1221 150.581 70.8439 150.942 72.0168L156.897 92.3619H169.528L162.31 73.4603C161.859 72.2875 162.445 70.9792 163.618 70.5281C164.791 70.077 166.099 70.6635 166.55 71.8364L174.941 93.8055C175.212 94.4821 175.121 95.2941 174.715 95.8806C174.309 96.5121 173.588 96.873 172.866 96.873H155.318C155.227 96.8279 155.227 96.8279 155.227 96.8279Z" fill="#FFFB98"/>
<path d="M41.5925 114.782H40.5549C34.3747 114.782 29.3223 109.775 29.3223 103.549V94.5725C29.3223 93.3093 30.3147 92.3169 31.5778 92.3169H50.5696C51.8327 92.3169 52.8252 93.3093 52.8252 94.5725V103.549C52.8252 109.775 47.7727 114.782 41.5925 114.782ZM33.8334 96.828V103.549C33.8334 107.248 36.8558 110.271 40.5549 110.271H41.5925C45.2916 110.271 48.314 107.248 48.314 103.549V96.828H33.8334Z" fill="#FFFB98"/>
<path d="M59.2309 114.782C53.186 114.782 48.314 109.865 48.314 103.865C48.314 102.602 49.3064 101.61 50.5695 101.61C51.8326 101.61 52.8251 102.602 52.8251 103.865C52.8251 107.384 55.7122 110.271 59.2309 110.271C62.7495 110.271 65.6366 107.384 65.6366 103.865V96.828H50.5695C49.3064 96.828 48.314 95.8356 48.314 94.5725C48.314 93.3093 49.3064 92.3169 50.5695 92.3169H67.8922C69.1553 92.3169 70.1477 93.3093 70.1477 94.5725V103.865C70.1477 109.91 65.2757 114.782 59.2309 114.782Z" fill="#FFFB98"/>
<path d="M76.7792 114.782C70.6441 114.782 65.6367 109.775 65.6367 103.64C65.6367 102.377 66.6292 101.384 67.8923 101.384C69.1554 101.384 70.1478 102.377 70.1478 103.64C70.1478 107.294 73.1252 110.271 76.7792 110.271C80.4332 110.271 83.4105 107.294 83.4105 103.64V96.7831H67.9374C66.6743 96.7831 65.6818 95.7906 65.6818 94.5275C65.6818 93.2644 66.6743 92.272 67.9374 92.272H85.666C86.9292 92.272 87.9216 93.2644 87.9216 94.5275V103.64C87.9216 109.82 82.9143 114.782 76.7792 114.782Z" fill="#FFFB98"/>
<path d="M94.0117 114.782C88.1473 114.782 83.3655 110 83.3655 104.136C83.3655 102.873 84.3579 101.88 85.621 101.88C86.8841 101.88 87.8766 102.873 87.8766 104.136C87.8766 107.519 90.6284 110.271 94.0117 110.271C97.395 110.271 100.147 107.564 100.147 104.181V96.828H85.6661C84.403 96.828 83.4106 95.8356 83.4106 94.5725C83.4106 93.3093 84.403 92.3169 85.6661 92.3169H102.402C103.665 92.3169 104.658 93.3093 104.658 94.5725V104.181C104.658 110.045 99.8761 114.782 94.0117 114.782Z" fill="#FFFB98"/>
<path d="M111.199 114.782C105.109 114.782 100.147 109.82 100.147 103.73C100.147 102.467 101.139 101.474 102.402 101.474C103.665 101.474 104.658 102.467 104.658 103.73C104.658 107.339 107.59 110.271 111.199 110.271C114.808 110.271 117.74 107.339 117.74 103.73V96.7831H102.402C101.139 96.7831 100.147 95.7906 100.147 94.5275C100.147 93.2644 101.139 92.272 102.402 92.272H119.996C121.259 92.272 122.251 93.2644 122.251 94.5275V103.73C122.251 109.865 117.289 114.782 111.199 114.782Z" fill="#FFFB98"/>
<path d="M128.792 114.782C122.702 114.782 117.74 109.82 117.74 103.73C117.74 102.467 118.732 101.474 119.996 101.474C121.259 101.474 122.251 102.467 122.251 103.73C122.251 107.339 125.183 110.271 128.792 110.271C132.401 110.271 135.333 107.339 135.333 103.73V96.7831H119.996C118.732 96.7831 117.74 95.7906 117.74 94.5275C117.74 93.2644 118.732 92.272 119.996 92.272H137.589C138.852 92.272 139.844 93.2644 139.844 94.5275V103.73C139.844 109.865 134.882 114.782 128.792 114.782Z" fill="#FFFB98"/>
<path d="M146.386 114.782C140.296 114.782 135.288 109.82 135.288 103.685C135.288 102.422 136.281 101.429 137.544 101.429C138.807 101.429 139.799 102.422 139.799 103.685C139.799 107.294 142.732 110.271 146.386 110.271C150.04 110.271 152.972 107.339 152.972 103.685V96.7831H137.589C136.326 96.7831 135.333 95.7906 135.333 94.5275C135.333 93.2644 136.326 92.272 137.589 92.272H155.227C156.491 92.272 157.483 93.2644 157.483 94.5275V103.685C157.483 109.82 152.476 114.782 146.386 114.782Z" fill="#FFFB98"/>
<path d="M164.024 114.782C157.934 114.782 152.972 109.82 152.972 103.73C152.972 102.467 153.964 101.474 155.227 101.474C156.491 101.474 157.483 102.467 157.483 103.73C157.483 107.339 160.415 110.271 164.024 110.271C167.633 110.271 170.565 107.339 170.565 103.73V96.7831H155.227C153.964 96.7831 152.972 95.7906 152.972 94.5275C152.972 93.2644 153.964 92.272 155.227 92.272H172.821C174.084 92.272 175.076 93.2644 175.076 94.5275V103.73C175.031 109.865 170.114 114.782 164.024 114.782Z" fill="#FFFB98"/>
<path d="M150.897 200.674C149.634 200.674 148.641 199.681 148.641 198.418V158.36C148.641 152.36 143.769 147.488 137.769 147.488H125.048C119.048 147.488 114.176 152.36 114.176 158.36V198.418C114.176 199.681 113.184 200.674 111.921 200.674C110.658 200.674 109.665 199.681 109.665 198.418V158.36C109.665 149.879 116.567 142.977 125.048 142.977H137.769C146.25 142.977 153.152 149.879 153.152 158.36V198.418C153.152 199.681 152.16 200.674 150.897 200.674Z" fill="#FFFB98"/>
<path d="M94.5529 174.329H58.5091C54.0882 174.329 50.5244 170.72 50.5244 166.344V139.548C50.5244 135.127 54.1333 131.518 58.5091 131.518H94.5529C98.9738 131.518 102.538 135.127 102.538 139.548V166.344C102.538 170.72 98.9286 174.329 94.5529 174.329ZM58.5091 136.029C56.5693 136.029 55.0355 137.608 55.0355 139.548V166.344C55.0355 168.284 56.6144 169.818 58.5091 169.818H94.5529C96.4926 169.818 98.0715 168.239 98.0715 166.344V139.548C98.0715 137.608 96.4926 136.029 94.5529 136.029H58.5091Z" fill="#FFFB98"/>
<path d="M100.282 155.157H52.735C51.4719 155.157 50.4795 154.164 50.4795 152.901C50.4795 151.638 51.4719 150.646 52.735 150.646H100.282C101.545 150.646 102.538 151.638 102.538 152.901C102.538 154.164 101.545 155.157 100.282 155.157Z" fill="#FFFB98"/>
<path d="M76.5085 174.329C75.2454 174.329 74.2529 173.336 74.2529 172.073V133.774C74.2529 132.511 75.2454 131.518 76.5085 131.518C77.7716 131.518 78.764 132.511 78.764 133.774V172.073C78.764 173.336 77.7716 174.329 76.5085 174.329Z" fill="#FFFB98"/>
<path d="M114.402 60.288C111.289 60.288 108.222 58.664 105.966 57.446C104.613 56.7242 102.944 55.822 102.177 55.822C101.41 55.822 99.7408 56.7242 98.3874 57.446C94.1921 59.6564 87.1548 63.4006 82.5083 55.3709C80.8843 52.5289 80.9745 48.9651 82.9143 45.3111C84.6285 42.018 87.651 38.9955 91.4403 36.8302C93.741 35.522 96.1319 34.5746 98.5679 34.0784C99.6956 33.8077 100.914 33.6724 102.177 33.6724C103.44 33.6724 104.658 33.8077 105.786 34.0784C108.222 34.5746 110.613 35.522 112.913 36.8302C121.169 41.612 125.048 49.732 121.8 55.3709C119.725 59.1151 117.063 60.288 114.402 60.288ZM102.177 51.356C104.026 51.356 106.011 52.3935 108.041 53.4762C113.184 56.1829 115.665 56.9949 117.921 53.1153C119.86 49.7771 116.522 44.1382 110.658 40.7549C108.808 39.6722 106.778 38.9053 104.838 38.4993C104.793 38.4993 104.793 38.4993 104.748 38.4542C103.981 38.2737 103.124 38.1835 102.177 38.1835H102.132C101.229 38.1835 100.372 38.2737 99.5603 38.4542C99.5152 38.4542 99.5152 38.4542 99.4701 38.4993C97.5303 38.9053 95.5003 39.6722 93.6508 40.7549C90.6283 42.5142 88.1923 44.86 86.8841 47.4313C86.2074 48.6944 85.2601 51.1755 86.3879 53.1153C88.5983 56.9949 91.0794 56.1829 96.2672 53.4762C98.3874 52.3935 100.327 51.356 102.177 51.356Z" fill="#FFFB98"/>
<path d="M82.1474 38.1837C78.764 38.1837 76.0574 35.2063 76.0574 31.5975C76.0574 27.9886 78.764 25.0112 82.1474 25.0112C85.5307 25.0112 88.2374 27.9886 88.2374 31.5975C88.2374 35.2063 85.4856 38.1837 82.1474 38.1837ZM82.1474 29.5675C81.2903 29.5675 80.5685 30.5148 80.5685 31.6426C80.5685 32.7703 81.2903 33.7177 82.1474 33.7177C83.0045 33.7177 83.7263 32.7703 83.7263 31.6426C83.7263 30.5148 83.0045 29.5675 82.1474 29.5675Z" fill="#FFFB98"/>
<path d="M95.3649 32.7701C91.9816 32.7701 89.2749 29.7928 89.2749 26.1839C89.2749 22.575 92.0267 19.5977 95.3649 19.5977C98.7031 19.5977 101.5 22.5299 101.5 26.1839C101.5 29.8379 98.7482 32.7701 95.3649 32.7701ZM95.3649 24.1088C94.5078 24.1088 93.786 25.0561 93.786 26.1839C93.786 27.3117 94.5078 28.259 95.3649 28.259C96.222 28.259 96.9438 27.3117 96.9438 26.1839C96.9438 25.0561 96.2671 24.1088 95.3649 24.1088Z" fill="#FFFB98"/>
<path d="M122.251 38.1837C118.868 38.1837 116.161 35.2063 116.161 31.5975C116.161 27.9886 118.868 25.0112 122.251 25.0112C125.634 25.0112 128.341 27.9886 128.341 31.5975C128.341 35.2063 125.634 38.1837 122.251 38.1837ZM122.251 29.5675C121.394 29.5675 120.672 30.5148 120.672 31.6426C120.672 32.7703 121.394 33.7177 122.251 33.7177C123.108 33.7177 123.83 32.7703 123.83 31.6426C123.83 30.5148 123.108 29.5675 122.251 29.5675Z" fill="#FFFB98"/>
<path d="M108.988 32.7701C105.605 32.7701 102.898 29.7928 102.898 26.1839C102.898 22.575 105.65 19.5977 108.988 19.5977C112.327 19.5977 115.078 22.575 115.078 26.1839C115.078 29.7928 112.372 32.7701 108.988 32.7701ZM108.988 24.1088C108.131 24.1088 107.41 25.0561 107.41 26.1839C107.41 27.3117 108.131 28.259 108.988 28.259C109.846 28.259 110.567 27.3117 110.567 26.1839C110.567 25.0561 109.846 24.1088 108.988 24.1088Z" fill="#FFFB98"/>
<path d="M102.177 74.9039C82.2828 74.9039 66.0879 58.709 66.0879 38.815C66.0879 18.921 82.2828 2.72607 102.177 2.72607C122.071 2.72607 138.266 18.921 138.266 38.815C138.266 58.709 122.071 74.9039 102.177 74.9039ZM102.177 7.23718C84.7639 7.23718 70.599 21.4021 70.599 38.815C70.599 56.2279 84.7639 70.3928 102.177 70.3928C119.59 70.3928 133.755 56.2279 133.755 38.815C133.755 21.4021 119.59 7.23718 102.177 7.23718Z" fill="#FFFB98"/>
<path d="M177.061 74.9043H27.3374C24.0443 74.9043 21.3376 72.2427 21.3376 68.9045V56.4538C21.3376 53.1607 23.9992 50.4541 27.3374 50.4541H71.3659C72.629 50.4541 73.6214 51.4465 73.6214 52.7096C73.6214 53.9727 72.629 54.9652 71.3659 54.9652H27.3374C26.5254 54.9652 25.8488 55.6418 25.8488 56.4538V68.9045C25.8488 69.7165 26.5254 70.3932 27.3374 70.3932H177.061C177.873 70.3932 178.55 69.7165 178.55 68.9045V56.4538C178.55 55.6418 177.873 54.9652 177.061 54.9652H133.033C131.77 54.9652 130.777 53.9727 130.777 52.7096C130.777 51.4465 131.77 50.4541 133.033 50.4541H177.061C180.354 50.4541 183.061 53.1156 183.061 56.4538V68.9045C183.061 72.1976 180.354 74.9043 177.061 74.9043Z" fill="#FFFB98"/>
<path d="M198.489 200.674H4.51117C3.24806 200.674 2.25562 199.681 2.25562 198.418C2.25562 197.155 3.24806 196.163 4.51117 196.163H198.489C199.752 196.163 200.745 197.155 200.745 198.418C200.745 199.681 199.752 200.674 198.489 200.674Z" fill="#FFFB98"/>
</svg>
